{"title":"Zombieland.2009.DVDRIP.XviD-ZEKTORM","uid":5247802,"size":742835192,"categoryP":"video","categoryS":"movies","magnet":"?xt=urn:btih:ce808b5d092eb4907fe5d8ab68e17b4a189ed996&amp;dn=Zombieland.2009.DVDRIP.XviD-ZEKTORM&amp;tr=udp%3A%2F%2Ftracker.openbittorrent.com%3A80&amp;tr=udp%3A%2F%2Fopen.demonii.com%3A1337&amp;tr=udp%3A%2F%2Ftracker.coppersurfer.tk%3A6969&amp;tr=udp%3A%2F%2Fexodus.desync.com%3A6969","seeders":0,"leechers":0,"uploader":"blowley","files":5,"time":1262225345,"description":"Title                            : Zombieland\nYear                             : 2009\nGenre                            : Action | Comedy | Horror\niMDB URL                         : http://www.imdb.com/title/tt1156398/\nAwards                           : 1 win &amp; 1 nomination\n\nComplete name                    : Zombieland.2009.DVDRIP.XviD-ZEKTORM.avi\nFormat                           : AVI\nFile size                        : 701 MiB\nDuration                         : 1h 27mn\nOverall bit rate                 : 1118 Kbps\nSubtitles                        : English, French (Format: VobSub)\n\nVideo\nFormat                           : MPEG-4 Visual\nFormat profile                   : Streaming Video@L1\nCodec ID/Hint                    : XviD\nDuration                         : 1h 27mn\nBit rate                         : 997 Kbps\nWidth                            : 720 pixels\nHeight                           : 304 pixels\nDisplay aspect ratio             : 2.35\nFrame rate                       : 23.976 fps\nResolution                       : 24 bits\nColorimetry                      : 4:2:0\nScan type                        : Progressive\nBits/(Pixel*Frame)               : 0.190\nStream size                      : 625 MiB (89%)\nWriting library                  : XviD\n\nAudio\nFormat                           : MPEG Audio\nFormat version                   : Version 1\nFormat profile                   : Layer 3\nCodec ID                         : 55\nCodec ID/Hint                    : MP3\nDuration                         : 1h 27mn\nBit rate mode                    : Variable\nBit rate                         : 108 Kbps\nMinimum bit rate                 : 128 Kbps\nChannel(s)                       : 2 channels\nSampling rate                    : 48.0 KHz\nResolution                       : 16 bits\nStream size                      : 67.9 MiB (10%)\nWriting library                  : LAME3.98r\nEncoding settings                : ABR\n","torrent":{"xt":"urn:btih:ce808b5d092eb4907fe5d8ab68e17b4a189ed996","amp;dn":"Zombieland.2009.DVDRIP.XviD-ZEKTORM","amp;tr":["udp%3A%2F%2Ftracker.openbittorrent.com%3A80","udp%3A%2F%2Fopen.demonii.com%3A1337","udp%3A%2F%2Ftracker.coppersurfer.tk%3A6969","udp%3A%2F%2Fexodus.desync.com%3A6969"],"infoHash":"ce808b5d092eb4907fe5d8ab68e17b4a189ed996","infoHashBuffer":{"type":"Buffer","data":[206,128,139,93,9,46,180,144,127,229,216,171,104,225,123,74,24,158,217,150]},"announce":[],"urlList":[]}}